<svg data-v-0dd9719b="" version="1.0" xmlns="http://www.w3.org/2000/svg" xmlns:xlink="http://www.w3.org/1999/xlink" width="100%" height="100%" viewBox="0 0 340.000000 250.000000" preserveAspectRatio="xMidYMid meet" color-interpolation-filters="sRGB" style="margin: auto;"> <rect data-v-0dd9719b="" x="0" y="0" width="100%" height="100%" fill="#ffffff" fill-opacity="1" class="background"></rect> <rect data-v-0dd9719b="" x="0" y="0" width="100%" height="100%" fill="url(#watermark)" fill-opacity="1" class="watermarklayer"></rect> <g data-v-0dd9719b="" fill="#b22166" class="icon-text-wrapper icon-svg-group iconsvg" transform="translate(48.189491271972656,98.37309455871582)"><g class="iconsvg-imagesvg" transform="translate(0,0)"><g><rect fill="#b22166" fill-opacity="0" stroke-width="2" x="0" y="0" width="60" height="53.25380764724678" class="image-rect"></rect> <svg filter="url(#colors5073968673)" x="0" y="0" width="60" height="53.25380764724678" filtersec="colorsf7073898634" class="image-svg-svg primary" style="overflow: visible;"><svg xmlns="http://www.w3.org/2000/svg" data-name="Layer 1" viewBox="4.497579097747803 9.59404182434082 91.03106689453125 80.79596710205078" x="0px" y="0px"><title>Heilongjiang Province</title><path d="M68.92,90.39a.49.49,0,0,1-.45-.29l-1.06-2.31-1.85-.29a.51.51,0,0,1-.38-.3l-1.7-4-1,.12.69,3.63a.56.56,0,0,1-.08.38.52.52,0,0,1-.33.21l-1.92.34a.52.52,0,0,1-.43-.14l-1.89-1.8a.51.51,0,0,1-.15-.31l-.18-1.94-2.33.4a.48.48,0,0,1-.5-.23l-2-3.16-1.85-1.14-1.61,1.31a.54.54,0,0,1-.27.11l-2.79.26a.52.52,0,0,1-.49-.27L45.1,78.66l-2.05,1a.59.59,0,0,1-.23,0l-2-.08-3.35,1.6a.49.49,0,0,1-.53-.06L34.24,79a.65.65,0,0,1-.16-.21L32.47,74.7,26.8,76.2a.51.51,0,0,1-.43-.09.48.48,0,0,1-.2-.4v-3a.52.52,0,0,1,.23-.43l2.2-1.39,0-1.11-1.55.68a.5.5,0,0,1-.49,0L22.43,67.5a.55.55,0,0,1-.16-.18l-.9-1.73a.49.49,0,0,1-.06-.29l.19-1.61a.5.5,0,0,1,.21-.35l3.22-2.26-.19-1.39a.51.51,0,0,1,.13-.41l3.7-3.94L29.42,54a.49.49,0,0,1,.34-.22.54.54,0,0,1,.39.1l1.72,1.38.4-.51L31.58,54a.46.46,0,0,1-.13-.33V49.19a.51.51,0,0,1,.11-.31l2.89-3.58-.4-.79-1.17-.75a.53.53,0,0,1-.23-.39L32.43,40l.22-3.66a.54.54,0,0,1,.09-.26l2.14-3,.95-3.93-4.75-3.46-1.6.33L29.12,28a.5.5,0,0,1-.44.41l-2.18.2-.4.8a.5.5,0,0,1-.45.28H23.22l-2.11,1.17a.55.55,0,0,1-.28.07l-2.76-.23a.58.58,0,0,1-.3-.13l-3.24-3a.5.5,0,0,1-.15-.42l.21-2-1.24-2.54-1.7-1.33L9.92,22.71a.48.48,0,0,1-.36.12l-2.68-.22a.58.58,0,0,1-.21-.07l-1.77-1a.51.51,0,0,1-.25-.38L4.5,19.8a.52.52,0,0,1,.1-.36l2.5-3.26L5.05,14a.5.5,0,0,1,.07-.74l1.13-.83a.53.53,0,0,1,.29-.1h.69l0-.3a.51.51,0,0,1,.15-.37.52.52,0,0,1,.38-.15l3,.13v-.53a.5.5,0,0,1,.47-.5L13,10.51a.43.43,0,0,1,.22,0l.74.31.51-1A.48.48,0,0,1,15,9.61h3.2a.58.58,0,0,1,.19,0l2.29.9a.38.38,0,0,1,.15.09l1.21,1h2.17l.09-.73a.54.54,0,0,1,.51-.43l2.42.07a.53.53,0,0,1,.35.17L29,12.38l1.48.23a.51.51,0,0,1,.28.15l1.54,1.57a.47.47,0,0,1,.14.28l.24,1.73L34,16.28a.52.52,0,0,1,.51.43l.38,2.47.71-.12a.52.52,0,0,1,.56.36l.57,2h.94a.47.47,0,0,1,.37.16.48.48,0,0,1,.13.38l-.15,1.81,1.61.36a.5.5,0,0,1,.39.54L39.92,26l.58,1.34,1.31.48A.69.69,0,0,1,42,28l1.5,1.92a.41.41,0,0,1,.1.21l.54,2.82,1.1.2a.45.45,0,0,1,.28.16l1,1.13a.51.51,0,0,1,.11.46l-.5,1.79.55-.13a.53.53,0,0,1,.42.1.51.51,0,0,1,.19.39v.83l.81.32a.53.53,0,0,1,.28.27l.4.93h2.57l.46-.86a.54.54,0,0,1,.49-.26l1.69.15,2.21.29,2.45-.43a.45.45,0,0,1,.2,0l1.43.34a.48.48,0,0,1,.19.09l1.81,1.39,2,1.88L66.91,41a.49.49,0,0,1,.66.5l-.12,1.79,1.18.4a.62.62,0,0,1,.19.12l1.58,1.58a.5.5,0,0,1,.15.42l-.4,3.09,1.39.37a.5.5,0,0,1,.37.49v1.51l1,0L73.51,50a.5.5,0,0,1,.46-.29h3.37l1.21-1.24a.48.48,0,0,1,.36-.15h1.58l1-1.45.35-1.06a.62.62,0,0,1,.12-.19l1-1a.46.46,0,0,1,.2-.13l2-.66.88-1.25.07-.08,2.49-2.29A.52.52,0,0,1,89,40l2,.21,1.07-.6a.5.5,0,0,1,.46,0,.49.49,0,0,1,.28.36l.41,2.34,1.49,1a.51.51,0,0,1,.2.28l.6,2.22a.48.48,0,0,1-.12.47L94,47.7,93,48.48l.83,1.13a.48.48,0,0,1,0,.6l-.8,1,.23,1.39,1,.78a.48.48,0,0,1,.2.4v1.57a.5.5,0,0,1-.34.48l-1,.35.71,1a.41.41,0,0,1,.08.19l.3,1.61a.49.49,0,0,1-.15.46l-.65.6.44.78a.49.49,0,0,1,0,.41.55.55,0,0,1-.28.3l-.82.33.71,1.67a.49.49,0,0,1-.22.63l-1.16.64L92.33,70a.49.49,0,0,1-.13.36.51.51,0,0,1-.34.17l-4.38.18-3.61-.4-.33,1.79a.48.48,0,0,1-.47.41l-1,0-.42,1.45a.49.49,0,0,1-.27.31l-1.14.54v1.48l1,.54a.5.5,0,0,1,.21.22l.61,1.21.92.48a.52.52,0,0,1,.26.48l-.14,1.89,1,1.11a.5.5,0,0,1,.12.41L84,84.45l.83.47a.5.5,0,0,1,.26.44v1.12a.51.51,0,0,1-.28.45l-2.3,1.16a.5.5,0,0,1-.38,0l-2.75-.9a.46.46,0,0,1-.2-.13l-1.66-1.72L75,85.4,72.8,87l-1.08,2.79a.48.48,0,0,1-.41.32L69,90.39ZM66,86.56l1.84.29a.5.5,0,0,1,.38.29l1,2.22,1.68-.19,1-2.65a.72.72,0,0,1,.17-.22l2.49-1.8a.56.56,0,0,1,.29-.1l2.86,0a.5.5,0,0,1,.37.15l1.72,1.79,2.44.79,1.84-.93v-.52l-.88-.5a.49.49,0,0,1-.25-.5l.27-1.94-1-1.11a.5.5,0,0,1-.13-.37l.13-1.78L81.46,79a.47.47,0,0,1-.21-.21l-.61-1.21L79.5,77a.51.51,0,0,1-.26-.44v-2.1a.52.52,0,0,1,.28-.46l1.23-.58.47-1.58a.5.5,0,0,1,.46-.36l.95,0L83,69.62a.51.51,0,0,1,.55-.4l4,.45,3.79-.17-.24-4.9a.49.49,0,0,1,.26-.46l1-.58-.73-1.72a.42.42,0,0,1,0-.38.47.47,0,0,1,.27-.28l.75-.3-.36-.64a.5.5,0,0,1,.1-.61l.74-.68-.23-1.23-1-1.49a.49.49,0,0,1-.07-.44.51.51,0,0,1,.32-.32L93.44,55v-1l-1-.75a.51.51,0,0,1-.19-.32l-.31-1.8a.54.54,0,0,1,.1-.39l.71-.9-.9-1.24a.45.45,0,0,1-.09-.37A.5.5,0,0,1,92,48l1.43-1,1-1.12L94,44.06l-1.5-1a.47.47,0,0,1-.21-.32l-.33-1.86-.6.33a.49.49,0,0,1-.29.06l-1.89-.2-2.28,2.1-1,1.34a.47.47,0,0,1-.25.19l-2.07.67-.85.88-.34,1-.06.12L81.17,49.1a.5.5,0,0,1-.42.22H79.12l-1.21,1.24a.55.55,0,0,1-.36.15H74.3L73.75,52a.5.5,0,0,1-.45.29l-1.88,0a.47.47,0,0,1-.36-.14.49.49,0,0,1-.15-.36V50.14l-1.44-.39a.51.51,0,0,1-.37-.55l.42-3.28L68.2,44.6l-1.44-.48a.53.53,0,0,1-.34-.51l.1-1.42L64.3,43a.5.5,0,0,1-.51-.11l-2.15-2.07L60,39.53l-1.23-.29-2.42.43h-.16l-2.26-.3-1.34-.11-.45.83a.51.51,0,0,1-.44.26h-3.2a.48.48,0,0,1-.46-.3l-.45-1-.94-.37a.5.5,0,0,1-.31-.47v-.54l-.75.17a.51.51,0,0,1-.47-.14.5.5,0,0,1-.12-.48l.64-2.33-.69-.79-1.26-.23a.51.51,0,0,1-.4-.4l-.58-3-1.34-1.71L40,28.17a.5.5,0,0,1-.28-.27L39,26.25a.55.55,0,0,1,0-.25L39,25l-1.6-.36a.49.49,0,0,1-.39-.53l.14-1.7h-.78a.51.51,0,0,1-.48-.37l-.55-1.9-.77.12a.51.51,0,0,1-.38-.09.53.53,0,0,1-.19-.33l-.39-2.52-1.36.06a.51.51,0,0,1-.52-.43l-.28-2-1.31-1.35-1.49-.23a.55.55,0,0,1-.3-.16l-1.44-1.61-1.74-.05-.1.71a.5.5,0,0,1-.49.44H21.81a.5.5,0,0,1-.33-.12l-1.29-1.11-2.13-.83H15.25l-.57,1.11A.51.51,0,0,1,14,12L13,11.51l-1.26.08v.58a.48.48,0,0,1-.16.36.47.47,0,0,1-.36.14l-3-.13v.28a.47.47,0,0,1-.14.37.48.48,0,0,1-.36.15h-1l-.54.4L8.11,15.8a.5.5,0,0,1,0,.65L5.52,19.89l.1.9,1.45.83,2.36.2,1.88-1.63a.5.5,0,0,1,.63,0l2.11,1.65a.46.46,0,0,1,.14.17l1.36,2.78a.5.5,0,0,1,0,.27L15.4,27l2.93,2.75,2.43.2,2.09-1.17a.5.5,0,0,1,.24-.06h2.25l.39-.77a.51.51,0,0,1,.4-.28l2.07-.19.35-2a.53.53,0,0,1,.39-.41l2.15-.45a.57.57,0,0,1,.4.09l5.2,3.79a.5.5,0,0,1,.19.52l-1.05,4.35a.89.89,0,0,1-.08.17l-2.11,3L33.43,40l.2,3.1,1.08.69a.45.45,0,0,1,.17.19l.6,1.2a.5.5,0,0,1,0,.54l-3,3.69v4.1l.85.94a.51.51,0,0,1,0,.65l-1,1.23a.49.49,0,0,1-.34.19.52.52,0,0,1-.37-.11L30,55l-.61.93-3.58,3.83L26,61.24a.48.48,0,0,1-.21.48L22.47,64l-.15,1.24.78,1.47L27,69.4,29,68.5a.51.51,0,0,1,.48,0,.51.51,0,0,1,.22.44l-.12,2.17a.49.49,0,0,1-.23.4L27.17,73v2.11l5.48-1.44a.48.48,0,0,1,.59.3L35,78.29l2.37,1.87,3.18-1.52a.49.49,0,0,1,.24,0l2,.07,2.37-1.11a.49.49,0,0,1,.66.22L47,80.17l2.3-.21,1.77-1.44a.5.5,0,0,1,.58,0l2.26,1.38a.61.61,0,0,1,.16.16L56,83l2.54-.44a.54.54,0,0,1,.39.1.49.49,0,0,1,.19.35l.21,2.29,1.57,1.5L62,86.6l-.7-3.66a.53.53,0,0,1,.09-.39.5.5,0,0,1,.35-.21l2-.22a.5.5,0,0,1,.51.3Z"></path></svg></svg> <defs><filter id="colors5073968673"><feColorMatrix type="matrix" values="0 0 0 0 0.22265625  0 0 0 0 0.08203125  0 0 0 0 0.37890625  0 0 0 1 0" class="icon-fecolormatrix"></feColorMatrix></filter> <filter id="colorsf7073898634"><feColorMatrix type="matrix" values="0 0 0 0 0.99609375  0 0 0 0 0.99609375  0 0 0 0 0.99609375  0 0 0 1 0" class="icon-fecolormatrix"></feColorMatrix></filter> <filter id="colorsb6944902563"><feColorMatrix type="matrix" values="0 0 0 0 0  0 0 0 0 0  0 0 0 0 0  0 0 0 1 0" class="icon-fecolormatrix"></feColorMatrix></filter></defs></g></g> <g transform="translate(67,2.3456554412841797)"><g data-gra="path-name" fill-rule="" class="tp-name iconsvg-namesvg" transform="translate(0,0)"><g transform="scale(1)"><g><path d="M25.17-22.68L24.61-21.55Q24.4-21.09 23.94-20.18L23.94-20.18Q23.41-19.23 22.22-19.69L22.22-19.69Q20.81-20.21 21.34-21.45L21.34-21.45Q22.18-23.48 22.29-23.8L22.29-23.8Q22.82-25.42 24.33-24.89L24.33-24.89Q25.95-24.33 25.17-22.68L25.17-22.68ZM11.71-20.92L11.71-20.92Q11.46-21.8 10.9-23.03L10.9-23.03Q10.23-24.43 11.71-24.93L11.71-24.93Q12.83-25.28 13.43-24.26L13.43-24.26Q14.24-22.64 14.59-21.55L14.59-21.55Q14.87-20.46 13.64-19.97L13.64-19.97Q12.09-19.41 11.71-20.92ZM15.89-18.98L15.89-25.84 10.3-25.84Q9.42-25.84 9.42-25L9.42-25 9.42-19.83Q9.42-18.98 10.3-18.98L10.3-18.98 15.89-18.98ZM20.07-25.84L20.07-18.98 25.49-18.98Q26.37-18.98 26.37-19.83L26.37-19.83 26.37-25Q26.37-25.84 25.49-25.84L25.49-25.84 20.07-25.84ZM32.06-4.85L32.06-4.85 3.97-4.85Q2.07-4.85 2.07-6.71L2.07-6.71Q2.07-8.61 3.97-8.61L3.97-8.61 15.89-8.61 15.89-10.44 6.54-10.44Q4.89-10.44 4.89-12.13L4.89-12.13Q4.89-13.78 6.54-13.78L6.54-13.78 15.89-13.78 15.89-15.5 7.77-15.5Q6.71-15.5 6.08-16.15 5.45-16.8 5.45-17.86L5.45-17.86 5.45-26.96Q5.45-28.02 6.08-28.67 6.71-29.32 7.77-29.32L7.77-29.32 28.27-29.32Q29.32-29.32 29.95-28.67 30.59-28.02 30.59-26.96L30.59-26.96 30.59-17.86Q30.59-16.8 29.95-16.15 29.32-15.5 28.27-15.5L28.27-15.5 20.07-15.5 20.07-13.78 29.46-13.78Q31.11-13.78 31.11-12.13L31.11-12.13Q31.11-10.44 29.46-10.44L29.46-10.44 20.07-10.44 20.07-8.61 32.06-8.61Q33.96-8.61 33.96-6.71L33.96-6.71Q33.96-4.85 32.06-4.85ZM8.93-1.37L8.93-1.37Q7.91 0.81 6.96 2L6.96 2Q5.87 3.3 4.32 2.64L4.32 2.64Q1.83 1.51 3.59-0.56L3.59-0.56Q4.29-1.69 4.71-2.53L4.71-2.53Q5.52-4.46 7.52-3.97L7.52-3.97Q9.7-3.45 8.93-1.37ZM12.2 0.07L12.2 0.07Q12.13-0.63 12.13-1.05L12.13-1.05Q11.88-3.09 13.92-3.3L13.92-3.3Q15.82-3.48 16.14-1.65L16.14-1.65Q16.24-0.77 16.38 0.67L16.38 0.67Q16.42 1.62 15.98 2.07 15.54 2.53 14.55 2.67L14.55 2.67Q12.27 2.95 12.23 0.77L12.23 0.77Q12.23 0.67 12.22 0.44 12.2 0.21 12.2 0.07ZM20.14 0.77L20.14 0.77Q20.04 0.49 19.92-0.04 19.79-0.56 19.69-0.84L19.69-0.84Q19.02-2.99 21.23-3.41L21.23-3.41Q23.06-3.73 23.66-2.18L23.66-2.18Q23.77-1.86 24.03-1.09 24.29-0.32 24.4 0.07L24.4 0.07Q24.64 1.13 24.26 1.67 23.87 2.21 22.82 2.46L22.82 2.46Q20.53 2.95 20.14 0.77ZM29.18 1.51L29.18 1.51Q28.62 0.49 27.46-1.13L27.46-1.13Q25.91-3.2 28.41-4.01L28.41-4.01Q29.99-4.5 30.94-3.3L30.94-3.3Q32.24-1.69 33.26-0.07L33.26-0.07Q34.35 1.79 32.13 2.57L32.13 2.57Q30.09 3.23 29.18 1.51ZM61.77-23.77L61.77-23.77Q59.55-25.66 58.36-26.58L58.36-26.58Q56.78-27.84 58.39-29.14L58.39-29.14Q59.59-30.06 60.68-29.32L60.68-29.32Q64.41-26.51 64.65-26.3L64.65-26.3Q65.43-25.59 65.36-25.03 65.29-24.47 64.48-23.77L64.48-23.77Q63.74-23.1 63.12-23.08 62.51-23.06 61.77-23.77ZM52.17-22.5L52.17-22.5 68.06-22.5Q70.07-22.5 70.07-20.53L70.07-20.53Q70.07-18.49 68.06-18.49L68.06-18.49 58.92-18.49 58.92-9.04Q62.02-12.2 63.91-15.4L63.91-15.4Q64.86-17.16 66.73-16.38L66.73-16.38Q68.87-15.54 67.68-13.5L67.68-13.5Q64.09-7.84 58.92-3.48L58.92-3.48 58.92-3.34Q58.92-2.18 59.22-1.88 59.52-1.58 60.64-1.58L60.64-1.58 65.14-1.58Q65.88-1.58 66.2-1.93L66.2-1.93Q66.52-3.55 67.25-4.39 67.99-5.24 69.22-4.71L69.22-4.71Q70.03-4.36 70.24-3.34 70.45-2.32 70.28-1.13L70.28-1.13Q69.79 0.81 68.71 1.6 67.64 2.39 65.57 2.39L65.57 2.39 60.08 2.39Q57.66 2.39 56.48 1.76 55.3 1.13 54.91-0.42L54.91-0.42 52.28 1.16Q50.41 2.18 49.18 0.7L49.18 0.7Q48.3-0.39 48.52-1.13 48.73-1.86 50.03-2.5L50.03-2.5Q52.42-3.76 54.6-5.38L54.6-5.38 54.6-18.49 51.64-18.49Q50.66-11.71 48.5-6.89 46.34-2.07 42.47 1.23L42.47 1.23Q41.45 2.04 40.61 2.04 39.76 2.04 38.92 1.09L38.92 1.09Q37.97-0.04 38.16-0.86 38.36-1.69 39.62-2.57L39.62-2.57Q45.63-7.56 47.29-18.49L47.29-18.49 39.97-18.49Q37.97-18.49 37.97-20.53L37.97-20.53Q37.97-22.5 39.97-22.5L39.97-22.5 47.78-22.5Q48.06-25.45 48.16-28.2L48.16-28.2Q48.23-30.52 50.48-30.41L50.48-30.41Q52.66-30.3 52.56-28.05L52.56-28.05Q52.42-25.7 52.17-22.5ZM79-24.79L79-24.79Q78.75-24.96 78.19-25.31 77.63-25.66 77.34-25.84L77.34-25.84Q75.59-26.96 76.96-28.62L76.96-28.62Q77.98-29.95 79.45-29.18L79.45-29.18Q81.07-28.3 82.9-27.14L82.9-27.14Q83.78-26.54 83.81-25.91 83.85-25.28 83.18-24.43L83.18-24.43Q81.84-22.75 80.23-23.94L80.23-23.94Q80.02-24.08 79.59-24.38 79.17-24.68 79-24.79ZM78.43-14.27L78.43-14.27Q77.94-14.63 75.34-16.07L75.34-16.07Q73.48-17.05 74.78-18.81L74.78-18.81Q75.76-20.18 77.2-19.51L77.2-19.51Q78.5-18.91 80.86-17.65L80.86-17.65Q81.77-17.12 81.86-16.49 81.95-15.86 81.32-14.98L81.32-14.98Q80.65-14.03 80.02-13.85 79.38-13.68 78.43-14.27ZM75.87-1.79L75.87-1.79Q78.47-5.87 80.23-9.25L80.23-9.25Q81.46-11.53 83.32-9.81L83.32-9.81Q84.59-8.65 83.81-7.07L83.81-7.07Q81.49-2.67 79.56 0.6L79.56 0.6Q78.26 2.71 76.39 1.2L76.39 1.2Q75.52 0.46 75.38-0.19 75.23-0.84 75.87-1.79ZM104.48 0.98L104.48 0.98 85.46 0.98Q83.36 0.98 83.36-1.2L83.36-1.2Q83.36-3.3 85.46-3.3L85.46-3.3 92.5-3.3 92.5-23.17 87.36-23.17Q85.25-23.17 85.25-25.35L85.25-25.35Q85.25-27.46 87.36-27.46L87.36-27.46 102.9-27.46Q105.01-27.46 105.01-25.35L105.01-25.35Q105.01-23.17 102.9-23.17L102.9-23.17 97.14-23.17 97.14-3.3 104.48-3.3Q106.59-3.3 106.59-1.2L106.59-1.2Q106.59 0.98 104.48 0.98ZM113.77-21.55L113.77-21.55Q113.59-18.28 112.68-14.41L112.68-14.41Q112.43-13.54 111.94-13.31 111.45-13.08 110.57-13.39L110.57-13.39Q109.69-13.68 109.42-14.15 109.16-14.63 109.41-15.47L109.41-15.47Q110.11-18.28 110.46-21.73L110.46-21.73Q110.6-23.38 112.32-23.17L112.32-23.17Q113.8-22.96 113.77-21.55ZM114.15 1.09L114.15 1.09 114.15-28.44Q114.15-30.48 116.19-30.48L116.19-30.48Q118.27-30.48 118.27-28.44L118.27-28.44 118.27-23.66 119.46-24.15Q120.45-24.57 120.87-23.63L120.87-23.63Q122.17-20.85 122.77-18.98L122.77-18.98Q123.19-17.72 121.78-17.09L121.78-17.09Q120.9-16.63 120.38-16.82 119.85-17.02 119.6-17.96L119.6-17.96Q119.21-19.27 118.27-21.59L118.27-21.59 118.27 1.09Q118.27 3.13 116.19 3.13L116.19 3.13Q114.15 3.13 114.15 1.09ZM124.31-27.56L124.31-27.56 139.78-27.56Q140.7-27.56 141.08-27.05 141.47-26.54 141.22-25.63L141.22-25.63 141.19-25.59Q135.77-19.34 132.4-15.17 129.02-11 127.56-8.79 126.11-6.57 125.7-5.61 125.3-4.64 125.3-3.83L125.3-3.83Q125.3-1.9 128.53-1.9L128.53-1.9 136.13-1.9Q137.04-1.9 137.51-2.36 137.99-2.81 138.23-4.04L138.23-4.04Q138.38-5.66 139.03-6.93 139.68-8.19 140.8-7.8L140.8-7.8Q141.61-7.52 141.89-6.29 142.17-5.06 142.03-3.87L142.03-3.87Q141.47-0.28 140.1 0.97 138.73 2.21 135.81 2.21L135.81 2.21 128.67 2.21Q124.8 2.21 122.91 0.74 121.01-0.74 121.01-3.34L121.01-3.34Q121.01-4.5 121.32-5.55 121.64-6.61 122.84-8.75 124.03-10.9 126.76-14.52 129.48-18.14 133.91-23.52L133.91-23.52 124.31-23.52Q122.31-23.52 122.31-25.56L122.31-25.56Q122.31-27.56 124.31-27.56ZM154.34-29L154.34-29 168.57-29Q169.63-29 170.28-28.37 170.93-27.74 170.93-26.68L170.93-26.68 170.93-3.94Q170.93-2.64 171.09-2.29 171.25-1.93 171.84-1.93L171.84-1.93 173.92-1.93Q174.55-1.93 174.73-3.66L174.73-3.66Q174.83-5.48 175.52-6.79 176.2-8.09 177.43-7.49L177.43-7.49Q178.21-7.14 178.49-5.94 178.77-4.75 178.66-3.59L178.66-3.59Q178.28-0.46 177.29 0.86 176.31 2.18 174.3 2.18L174.3 2.18 171 2.18Q168.5 2.18 167.55 0.88 166.61-0.42 166.61-3.97L166.61-3.97 166.61-23.87Q166.61-24.71 165.73-24.71L165.73-24.71 157.32-24.71Q156.45-24.71 156.45-23.87L156.45-23.87 156.45-17.4 157.99-18.6Q159.47-19.65 160.49-18.42L160.49-18.42Q164.25-14.17 165.27-12.9L165.27-12.9Q165.9-12.02 165.76-11.43 165.62-10.83 164.78-10.09L164.78-10.09Q163.79-9.25 163.13-9.25 162.46-9.25 161.75-10.23L161.75-10.23Q160.56-11.85 156.45-16.95L156.45-16.95Q156.13-4.64 150.36 1.65L150.36 1.65Q148.43 3.41 146.92 1.97L146.92 1.97Q145.13 0.28 147.45-1.93L147.45-1.93Q150.19-5.17 151.08-9.18 151.98-13.18 151.98-18.04L151.98-18.04 151.98-26.68Q151.98-27.74 152.63-28.37 153.28-29 154.34-29Z" transform="translate(-2.069999933242798, 30.479999542236328)"></path></g> <!----> <!----> <!----> <!----> <!----> <!----> <!----></g></g> <g data-gra="path-slogan" fill-rule="" class="tp-slogan iconsvg-slogansvg" fill="#b22166" transform="translate(5.000007629394531,39.61000061035156)"><rect x="0" height="1" y="3.9750003814697266" width="17.40550994873047"></rect> <rect height="1" y="3.9750003814697266" width="17.40550994873047" x="149.21550750732422"></rect> <g transform="translate(20.40550994873047,0)"><g transform="scale(1)"><path d="M2.06-5.06L6.56-5.06L6.56-8.58L7.73-8.58L7.73 0L6.56 0L6.56-3.98L2.06-3.98L2.06 0L0.89 0L0.89-8.58L2.06-8.58L2.06-5.06ZM10.83-1.03L15.98-1.03L15.98 0L9.66 0L9.66-8.58L15.89-8.58L15.89-7.59L10.83-7.59L10.83-4.92L15.52-4.92L15.52-3.89L10.83-3.89L10.83-1.03ZM17.67-8.58L18.84-8.58L18.84 0L17.67 0L17.67-8.58ZM20.81-8.58L21.98-8.58L21.98-1.03L26.34-1.03L26.34 0L20.81 0L20.81-8.58ZM34.27-4.27L34.27-4.27Q34.08-7.64 31.27-7.83L31.27-7.83Q28.41-7.69 28.27-4.27L28.27-4.27Q28.41-0.94 31.27-0.80L31.27-0.80Q34.08-0.98 34.27-4.27ZM35.44-4.27L35.44-4.27Q35.16 0 31.27 0.14L31.27 0.14Q27.33 0 27.05-4.27L27.05-4.27Q27.28-8.72 31.27-8.81L31.27-8.81Q35.16-8.67 35.44-4.27ZM38.20-8.58L42.52-1.64L42.52-8.58L43.64-8.58L43.64 0L42.33 0L37.97-6.94L37.92-6.94L37.92 0L36.80 0L36.80-8.58L38.20-8.58ZM51.84-3.61L49.22-3.61L49.22-4.59L52.97-4.59L52.97 0L52.22 0L51.94-1.08Q50.95 0.09 49.13 0.14L49.13 0.14Q47.39 0.14 46.45-0.75L46.45-0.75Q45.05-2.06 45.09-4.36L45.09-4.36Q45.42-8.63 49.17-8.81L49.17-8.81Q52.36-8.63 52.83-6L52.83-6L51.70-6Q51.23-7.78 49.13-7.83L49.13-7.83Q46.45-7.64 46.31-4.31L46.31-4.31Q46.31-0.75 49.17-0.75L49.17-0.75Q50.20-0.75 50.95-1.31L50.95-1.31Q51.89-2.06 51.84-3.61L51.84-3.61ZM54.05-1.92L54.05-2.77L55.13-2.77L55.13-2.16Q55.13-0.75 56.44-0.75L56.44-0.75Q57.80-0.75 57.80-2.25L57.80-2.25L57.80-8.58L58.97-8.58L58.97-2.30Q58.92 0.09 56.48 0.14L56.48 0.14Q54.19 0.09 54.05-1.92L54.05-1.92ZM60.94-8.58L62.11-8.58L62.11 0L60.94 0L60.94-8.58ZM69.75 0L68.91-2.48L65.44-2.48L64.55 0L63.38 0L66.61-8.58L67.92-8.58L71.02 0L69.75 0ZM67.17-7.31L65.81-3.52L68.48-3.52L67.22-7.31L67.17-7.31ZM73.45-8.58L77.77-1.64L77.77-8.58L78.89-8.58L78.89 0L77.58 0L73.22-6.94L73.17-6.94L73.17 0L72.05 0L72.05-8.58L73.45-8.58ZM87.09-3.61L84.47-3.61L84.47-4.59L88.22-4.59L88.22 0L87.47 0L87.19-1.08Q86.20 0.09 84.38 0.14L84.38 0.14Q82.64 0.14 81.70-0.75L81.70-0.75Q80.30-2.06 80.34-4.36L80.34-4.36Q80.67-8.63 84.42-8.81L84.42-8.81Q87.61-8.63 88.08-6L88.08-6L86.95-6Q86.48-7.78 84.38-7.83L84.38-7.83Q81.70-7.64 81.56-4.31L81.56-4.31Q81.56-0.75 84.42-0.75L84.42-0.75Q85.45-0.75 86.20-1.31L86.20-1.31Q87.14-2.06 87.09-3.61L87.09-3.61ZM100.27-8.58L97.03-3.47L97.03 0L95.86 0L95.86-3.47L92.63-8.58L93.98-8.58L96.42-4.45L98.91-8.58L100.27-8.58ZM101.48-8.58L102.66-8.58L102.66 0L101.48 0L101.48-8.58ZM110.16-3.89L105.94-3.89L105.94 0L104.77 0L104.77-8.58L110.72-8.58L110.72-7.59L105.94-7.59L105.94-4.92L110.16-4.92L110.16-3.89ZM117.56 0L116.72-2.48L113.25-2.48L112.36 0L111.19 0L114.42-8.58L115.73-8.58L118.83 0L117.56 0ZM114.98-7.31L113.63-3.52L116.30-3.52L115.03-7.31L114.98-7.31ZM121.27-8.58L125.58-1.64L125.58-8.58L126.70-8.58L126.70 0L125.39 0L121.03-6.94L120.98-6.94L120.98 0L119.86 0L119.86-8.58L121.27-8.58Z" transform="translate(-0.890625, 8.8125)"></path></g></g></g></g></g><defs v-gra="od"></defs></svg>